<!-- icon666.com - MILLIONS vector ICONS FREE --><svg enable-background="new 0 0 512 512" viewBox="0 0 512 512" xmlns="http://www.w3.org/2000/svg"><g id="_x31_244_x2C__Anytime_x2C__Call_x2C__Clock_x2C__Contact_x2C__Contact_Us"><g><path d="m436.193 75.751c-48.141-48.141-112.14-74.652-180.22-74.652-140.863 0-254.876 113.993-254.876 254.871 0 68.083 26.511 132.087 74.652 180.224 99.604 99.604 260.825 99.619 360.444 0 99.61-99.605 99.62-260.828 0-360.443zm-180.22 414.704c-129.293 0-234.485-105.188-234.485-234.485 0-129.293 105.192-234.48 234.485-234.48 129.29 0 234.478 105.188 234.478 234.48-.001 129.298-105.188 234.485-234.478 234.485z"></path><path d="m255.973 429.285c-95.565 0-173.315-77.745-173.315-173.315 0-5.628-4.562-10.195-10.195-10.195-5.628 0-10.195 4.567-10.195 10.195 0 106.812 86.895 193.705 193.706 193.705 5.625 0 10.197-4.562 10.197-10.194-.001-5.629-4.573-10.196-10.198-10.196z"></path><path d="m255.973 62.27c-5.633 0-10.195 4.562-10.195 10.195 0 5.628 4.563 10.195 10.195 10.195 95.563 0 173.317 77.745 173.317 173.311 0 5.633 4.563 10.2 10.19 10.2s10.2-4.567 10.2-10.2c.001-106.807-86.899-193.701-193.707-193.701z"></path><path d="m200.381 264.87c-17.78 16.4-36.164 33.354-36.164 52.274 0 5.628 4.562 10.195 10.195 10.195h61.17c5.628 0 10.195-4.567 10.195-10.195 0-5.633-4.567-10.195-10.195-10.195h-47.05c5.663-8.636 16.455-18.587 25.674-27.088 16.938-15.624 31.571-29.116 31.571-44.277 0-22.487-18.293-40.78-40.78-40.78s-40.78 18.293-40.78 40.78c0 5.628 4.562 10.19 10.195 10.19 5.628 0 10.195-4.562 10.195-10.19 0-11.246 9.149-20.39 20.39-20.39s20.39 9.145 20.39 20.39c.001 6.226-14.453 19.554-25.006 29.286z"></path><path d="m337.53 255.97h-10.19v-10.195c0-5.628-4.571-10.19-10.199-10.19s-10.19 4.562-10.19 10.19v10.195h-21.734l30.211-45.317c3.128-4.687 1.863-11.012-2.829-14.14-4.682-3.123-11.007-1.857-14.134 2.829l-40.778 61.17c-2.086 3.128-2.281 7.152-.508 10.469 1.773 3.313 5.228 5.384 8.992 5.384h40.78v40.78c0 5.628 4.563 10.195 10.19 10.195s10.199-4.567 10.199-10.195v-40.78h10.19c5.628 0 10.2-4.566 10.2-10.194 0-5.634-4.572-10.201-10.2-10.201z"></path></g></g></svg>