<!-- icon666.com - MILLIONS vector ICONS FREE --><svg viewBox="0 -6 511.99999 511" xmlns="http://www.w3.org/2000/svg"><path d="m506.910156 366.671875c-10.417968-19.417969-34.390625-27.757813-54.679687-18.746094-64.984375 27.320313-80.800781 40.097657-114.757813 43.851563 1.578125-4.734375 2.457032-9.566406 2.457032-14.832032 0-25.378906-20.648438-46.015624-46.015626-46.015624h-50.535156c-6.550781 0-12.628906-3.558594-16.238281-9.523438-21.789063-36.027344-71.511719-26.320312-82.898437-27.886719-33.871094 0-58.339844 16.671875-65.0625 42.808594h-64.011719c-8.375 0-15.167969 6.796875-15.167969 15.167969v133.65625c0 8.382812 6.792969 15.167968 15.167969 15.167968 21.902343 0 287.296875.015626 297.84375.019532 30.011719 0 59.574219-7.988282 85.507812-23.09375l92.332031-53.789063c19.871094-11.578125 26.917969-36.511719 16.058594-56.785156zm-429.601562 103.3125h-46.976563v-103.320313h46.976563zm398.277344-72.734375-92.332032 53.789062c-21.304687 12.40625-45.589844 18.96875-70.242187 18.96875h-205.371094v-118.511718c0-24.953125 25.601563-27.644532 36.601563-27.644532 18.113281.625 46.652343-3.753906 56.953124 13.257813 9.152344 15.125 24.925782 24.152344 42.183594 24.152344h50.535156c9.304688 0 16.382813 8.109375 15.640626 16.746093-.117188 3.425782-3.828126 14.621094-15.640626 14.621094-17.160156 0-69.582031 0-86.378906 0-8.371094 0-15.164062 6.792969-15.164062 15.164063 0 8.382812 6.792968 15.167969 15.164062 15.167969h114.445313c23.902343 0 47.097656-4.914063 68.945312-14.621094l73.609375-32.6875c5.78125-2.570313 12.648438-.214844 15.640625 5.359375 3.105469 5.792969 1.09375 12.921875-4.589843 16.238281zm0 0"></path><path d="m277.007812 282.214844c74.152344 0 134.476563-60.320313 134.476563-134.472656 0-74.152344-60.324219-134.476563-134.476563-134.476563-74.144531 0-134.476562 60.324219-134.476562 134.476563 0 74.152343 60.332031 134.472656 134.476562 134.472656zm0-238.613282c57.429688 0 104.140626 46.710938 104.140626 104.140626 0 57.417968-46.710938 104.140624-104.140626 104.140624-57.417968 0-104.140624-46.722656-104.140624-104.140624 0-57.429688 46.722656-104.140626 104.140624-104.140626zm0 0"></path><path d="m264.15625 164.820312h25.710938c2.953124 0 5.351562 2.394532 5.351562 5.347657s-2.398438 5.347656-5.351562 5.347656h-45.871094c-8.382813 0-15.167969 6.796875-15.167969 15.167969 0 8.382812 6.785156 15.164062 15.167969 15.164062h21.898437v7.957032c0 8.375 6.796875 15.167968 15.167969 15.167968 8.382812 0 15.167969-6.792968 15.167969-15.167968v-8.523438c16.652343-3.011719 29.320312-17.613281 29.320312-35.113281 0-19.675781-16.007812-35.679688-35.683593-35.679688h-25.710938c-2.953125 0-5.359375-2.410156-5.359375-5.359375 0-2.953125 2.40625-5.351562 5.359375-5.351562h46.226562c8.382813 0 15.167969-6.792969 15.167969-15.164063 0-8.382812-6.785156-15.167969-15.167969-15.167969h-14.152343v-7.957031c0-8.371093-6.785157-15.164062-15.167969-15.164062-8.371094 0-15.167969 6.792969-15.167969 15.164062v7.957031h-1.738281c-19.675781 0-35.691406 16.007813-35.691406 35.683594 0 19.675782 16.015625 35.691406 35.691406 35.691406zm0 0"></path><path d="m53.820312 123.777344h10.25v10.25c0 8.375 6.789063 15.164062 15.164063 15.164062 8.378906 0 15.167969-6.789062 15.167969-15.164062v-10.25h10.25c8.375 0 15.164062-6.789063 15.164062-15.164063 0-8.378906-6.789062-15.167969-15.164062-15.167969h-10.25v-10.25c0-8.375-6.789063-15.164062-15.167969-15.164062-8.375 0-15.164063 6.789062-15.164063 15.164062v10.25h-10.25c-8.375 0-15.167968 6.789063-15.167968 15.167969 0 8.375 6.792968 15.164063 15.167968 15.164063zm0 0"></path><path d="m470.0625 256.25v-10.25c0-8.375-6.792969-15.167969-15.167969-15.167969s-15.167969 6.792969-15.167969 15.167969v10.25h-10.246093c-8.378907 0-15.167969 6.789062-15.167969 15.164062s6.789062 15.167969 15.167969 15.167969h10.246093v10.25c0 8.375 6.792969 15.164063 15.167969 15.164063s15.167969-6.789063 15.167969-15.164063v-10.25h10.246094c8.378906 0 15.167968-6.792969 15.167968-15.167969s-6.789062-15.164062-15.167968-15.164062zm0 0"></path><path d="m423.679688 56.25h10.25v10.246094c0 8.375 6.789062 15.167968 15.164062 15.167968 8.378906 0 15.167969-6.792968 15.167969-15.167968v-10.246094h10.25c8.375 0 15.164062-6.792969 15.164062-15.167969s-6.789062-15.167969-15.164062-15.167969h-10.25v-10.246093c0-8.378907-6.789063-15.167969-15.167969-15.167969-8.375 0-15.164062 6.789062-15.164062 15.167969v10.246093h-10.25c-8.375 0-15.167969 6.792969-15.167969 15.167969s6.792969 15.167969 15.167969 15.167969zm0 0"></path></svg>